/* XPM */
static char *d0b75e3b3dc84c9cdf99753a4d933a61IHb5ltpKe4yLGe71[] = {
/* columns rows colors chars-per-pixel */
"32 32 163 2 ",
"   c None",
".  c #6D4F43",
"X  c #8D553F",
"o  c #805140",
"O  c #8F5740",
"+  c #8F5741",
"@  c #905740",
"#  c #915740",
"$  c #905741",
"%  c #915841",
"&  c #925942",
"*  c #935A43",
"=  c #945A42",
"-  c #945A43",
";  c #965B42",
":  c #945B44",
">  c #955C45",
",  c #965D45",
"<  c #975D46",
"1  c #995A40",
"2  c #9C5D41",
"3  c #9B5E44",
"4  c #9A5F45",
"5  c #985E46",
"6  c #995F47",
"7  c #9C5E44",
"8  c #995F48",
"9  c #9E6044",
"0  c #9E6045",
"q  c #9F6145",
"w  c #9A6048",
"e  c #9A6049",
"r  c #9E6249",
"t  c #9D624B",
"y  c #9E634B",
"u  c #9F644C",
"i  c #9F654D",
"p  c #9F664C",
"a  c #A46447",
"s  c #A36449",
"d  c #A5664A",
"f  c #A0654D",
"g  c #A1654D",
"h  c #A1664D",
"j  c #A2664D",
"k  c #A0654E",
"l  c #A1664E",
"z  c #A5674C",
"x  c #A7674C",
"c  c #A96748",
"v  c #A86749",
"b  c #A7684C",
"n  c #A7684D",
"m  c #AC6949",
"M  c #A8694C",
"N  c #A96A4C",
"B  c #AC6B4C",
"V  c #B16A48",
"C  c #B26A48",
"Z  c #B36C49",
"A  c #B06C4A",
"S  c #B36C4A",
"D  c #B26D4B",
"F  c #B36D4B",
"G  c #B46D4A",
"H  c #B46E4B",
"J  c #B56E4B",
"K  c #B56F4B",
"L  c #B66E4B",
"P  c #B56E4C",
"I  c #B66F4C",
"U  c #B6704D",
"Y  c #B8714D",
"T  c #B9724E",
"R  c #BB734F",
"E  c #BB744F",
"W  c #A3745F",
"Q  c #B17151",
"!  c #B87553",
"~  c #BC7450",
"^  c #BC7652",
"/  c #BF7752",
"(  c #BF7853",
")  c #BD7954",
"_  c #BC7956",
"`  c #B87959",
"'  c #B87A5B",
"]  c #B97B5B",
"[  c #B87B5C",
"{  c #B97B5C",
"}  c #C17750",
"|  c #C07953",
" . c #C37B55",
".. c #C67C55",
"X. c #C57D56",
"o. c #C67D57",
"O. c #C67E57",
"+. c #C67F59",
"@. c #C87F58",
"#. c #BC866A",
"$. c #B08976",
"%. c #BC9474",
"&. c #CA8159",
"*. c #CA825A",
"=. c #CF8358",
"-. c #CD845B",
";. c #CD855C",
":. c #CF865D",
">. c #CD855E",
",. c #D1885E",
"<. c #D4885D",
"1. c #CD8A63",
"2. c #D58B61",
"3. c #D28C63",
"4. c #D68C62",
"5. c #D68D62",
"6. c #D69064",
"7. c #DA9065",
"8. c #DA9165",
"9. c #DB9266",
"0. c #DD9366",
"q. c #D0916C",
"w. c #DF996D",
"e. c #C28F74",
"r. c #CC9271",
"t. c #DE9A71",
"y. c #DA9E74",
"u. c #E09568",
"i. c #DCA57C",
"p. c #DDA77E",
"a. c #E3A074",
"s. c #EBA87A",
"d. c #ECA879",
"f. c #ECAA7B",
"g. c #E9AB7E",
"h. c #B89481",
"j. c #BD9782",
"k. c #C19A84",
"l. c #C4A38F",
"z. c #DEAA81",
"x. c #C3A795",
"c. c #C9A792",
"v. c #C5A893",
"b. c #C6AD9C",
"n. c #D2AE97",
"m. c #D4B097",
"M. c #E6B18B",
"N. c #EDBA8E",
"B. c #F4BF90",
"V. c #C9B4A6",
"C. c #C9B5A7",
"Z. c #C9B6A8",
"A. c #D8BCA8",
"S. c #CCC1B6",
"D. c #CCC1B7",
"F. c #CDC7BF",
"G. c #D1C7BD",
"H. c #CECAC2",
"J. c #CECAC3",
"K. c #CFCDC6",
"L. c #D0D1CB",
"P. c #D1D2CC",
"I. c #D1D4D0",
/* pixels */
"                                                                ",
"                                                                ",
"                                                                ",
"                                                                ",
"                                                                ",
"                            % X + + X +                         ",
"                          7 7 9 7 N N 3                         ",
"                        1 c K K K ;.,.I 3                       ",
"                      ; c U K K K T @.2.U 7 O                   ",
"                    : r A &.&.A V V X.0.^ s , %                 ",
"                  $ , j B &.:.X.+.o.*.-.T N e %                 ",
"                  + , r y c ) 8.8.8.-.I F z e %                 ",
"                  % % : % ; s E ~ R T A z j e %                 ",
"                    Q _ w h.j.0 d z x N j u e O                 ",
"                      3.X x.n.O i u j u u j e %                 ",
"                      1.. %.i.t i i u j j u 8 %                 ",
"                      u.z.N.B.z.i 3 u j j , %                   ",
"                        s.s.s.a.m 1 : : , :                     ",
"                        u.<.-.;.e.$.W 2 %                       ",
"                          [ [ #.D.L.b.[                         ",
"                        I v.Z.D.J.K.J.Z.{                       ",
"                        I r.A.J.k.C.P.F.{                       ",
"                        K 5.M.n.! x.I.Z.{                       ",
"                        I y.g.2.( c.G.Z.[                       ",
"                          _ ^ } 4.t.q.[                         ",
"                            S I o.X.}                           ",
"                              K V S                             ",
"                                                                ",
"                                                                ",
"                                                                ",
"                                                                ",
"                                                                "
};
