/* XPM */
static char *ea6aa0cd57054f83b036c465e8ac2f19Ph6czKqJKSKvCXZh[] = {
/* columns rows colors chars-per-pixel */
"32 32 157 2 ",
"   c None",
".  c #8D553F",
"X  c #8E563F",
"o  c #8F5640",
"O  c #8F5740",
"+  c #905740",
"@  c #905841",
"#  c #915841",
"$  c #935942",
"%  c #955B43",
"&  c #945B44",
"*  c #955B44",
"=  c #955C44",
"-  c #965C44",
";  c #965C45",
":  c #995C42",
">  c #9E5F43",
",  c #995D44",
"<  c #985D45",
"1  c #995E45",
"2  c #9A5E44",
"3  c #985E47",
"4  c #995F48",
"5  c #8A634F",
"6  c #9E6045",
"7  c #9A6048",
"8  c #9B6048",
"9  c #9A6049",
"0  c #9C6249",
"q  c #9E6249",
"w  c #9F644C",
"e  c #8B6550",
"r  c #8C6D5E",
"t  c #8D6E5F",
"y  c #9E6A54",
"u  c #A06146",
"i  c #A16246",
"p  c #A16347",
"a  c #A0654D",
"s  c #A1654D",
"d  c #A1664D",
"f  c #A1664E",
"g  c #A5674C",
"h  c #A5684C",
"j  c #A5694D",
"k  c #A6684C",
"l  c #A7684D",
"z  c #A5694F",
"x  c #A6694F",
"c  c #A8694B",
"v  c #A9694B",
"b  c #A96A4C",
"n  c #AB6B4C",
"m  c #AD6E4F",
"M  c #B26B49",
"N  c #B16B4A",
"B  c #B36C49",
"V  c #B26D4B",
"C  c #B56C48",
"Z  c #B46E4B",
"A  c #B56E4B",
"S  c #B56F4B",
"D  c #B66F4B",
"F  c #B96E48",
"G  c #B8714D",
"H  c #BA724D",
"J  c #B9724E",
"K  c #BA724E",
"L  c #AA6C51",
"P  c #B07050",
"I  c #B57150",
"U  c #B57554",
"Y  c #BA7451",
"T  c #BF7852",
"R  c #BC7956",
"E  c #B97A5A",
"W  c #B87B5A",
"Q  c #B97B5C",
"!  c #B97E5C",
"~  c #A87761",
"^  c #A77D61",
"/  c #C27750",
"(  c #C17852",
")  c #C47A53",
"_  c #C57B54",
"`  c #C67D56",
"'  c #C37F59",
"]  c #C77F58",
"[  c #A88469",
"{  c #BC8361",
"}  c #AF8772",
"|  c #B38974",
" . c #B99079",
".. c #C3805C",
"X. c #C1815E",
"o. c #C9825B",
"O. c #CB825A",
"+. c #CE8259",
"@. c #CD845B",
"#. c #CA855F",
"$. c #CE855C",
"%. c #D08962",
"&. c #D18F6A",
"*. c #DB9267",
"=. c #DC9267",
"-. c #DC9367",
";. c #D7946A",
":. c #D0916C",
">. c #D3956D",
",. c #D8976F",
"<. c #DA986C",
"1. c #DA996F",
"2. c #C1947B",
"3. c #D79770",
"4. c #D89871",
"5. c #D99871",
"6. c #E49B6D",
"7. c #E39C6F",
"8. c #E5A073",
"9. c #E2A074",
"0. c #E0A077",
"q. c #E4A87C",
"w. c #F0AD7E",
"e. c #DCA481",
"r. c #D7A889",
"t. c #DDAB8A",
"y. c #DAB094",
"u. c #EBAE81",
"i. c #E8AD82",
"p. c #ECB389",
"a. c #EEBA8C",
"s. c #F3BB8C",
"d. c #F3BB8D",
"f. c #F3BC8D",
"g. c #F4BC8D",
"h. c #CEB9AA",
"j. c #D5B6A1",
"k. c #D5B7A2",
"l. c #CBBFB4",
"z. c #F6C091",
"x. c #F6C192",
"c. c #F6C293",
"v. c #CFC3B7",
"b. c #CFC4B9",
"n. c #D2C0B1",
"m. c #D0C5B9",
"M. c #D1C6BA",
"N. c #D2C7BC",
"B. c #D0C9BF",
"V. c #EBC3A1",
"C. c #EDC5A2",
"Z. c #E2C9B4",
"A. c #EBD0B9",
"S. c #D0CBC3",
"D. c #CED0CB",
"F. c #CFD0CB",
"G. c #CED0CC",
/* pixels */
"                                                                ",
"                                                                ",
"                                                                ",
"                                                                ",
"                                                                ",
"                        + . O O O . . +                         ",
"                        & x b > 6 b g &                         ",
"                      % x #.@.D D $.#.x =                       ",
"                  + & x %.` J D D J ] %.x & #                   ",
"                  + & L -.` N D D M ` -.I 2 .                   ",
"                  = 4 x ..o.( D B T o.@.J p &                   ",
"                # 9 a w a ..o.N D $.$.D N b 7 #                 ",
"                # 9 a a a q 2 2 M Y J M x a 7 #                 ",
"                # 9 a w = P ..R 6 : u g a a 9 #                 ",
"                # = 9 7 n ;.w.9.U L g 2 3 9 2 #                 ",
"                  # % x 5.i.a.g.8.=.X.y q = #                   ",
"                  O b 3.A. .{ c.g.! | Z.3.c .                   ",
"                    > E V.r 5 c.c.e t C.E >                     ",
"                    ~ | q.^ [ c.c.[ ^ q.} ~                     ",
"                  F  .b.q.i.d.f.g.g.u.e.m.2.F                   ",
"                D @.r.S.m.t.6.7.7.6.t.N.S.r.@.D                 ",
"                D 1.p.y.B.n.j.j.j.j.n.b.y.p.1.D                 ",
"                D :.;.&.b.G.F.F.F.D.D.b.:.,.>.D                 ",
"                  D D E h.N.v.l.v.v.N.h.E B D                   ",
"                      Y ,.0.:.Q Q :.9.,.Y                       ",
"                        _ _ /     / _ (                         ",
"                        N D         N D                         ",
"                                                                ",
"                                                                ",
"                                                                ",
"                                                                ",
"                                                                "
};
