/* XPM */
static char *_c301895258b4b4cfc5d3cebb8622658TSpkVpc2Pq2rtyfI[] = {
/* columns rows colors chars-per-pixel */
"32 32 104 2 ",
"   c None",
".  c #8F543C",
"X  c #8F543D",
"o  c #8F553D",
"O  c #8D553F",
"+  c #8E543E",
"@  c #8E563F",
"#  c #8F5640",
"$  c #8F5740",
"%  c #905740",
"&  c #905841",
"*  c #915841",
"=  c #935942",
"-  c #935A42",
";  c #945B43",
":  c #935B45",
">  c #945B44",
",  c #955B44",
"<  c #965C44",
"1  c #965D45",
"2  c #995D44",
"3  c #985E46",
"4  c #9E6045",
"5  c #9A6048",
"6  c #9A6049",
"7  c #9B6149",
"8  c #9C624A",
"9  c #9E634C",
"0  c #9F644C",
"q  c #9F644D",
"w  c #9F654E",
"e  c #986550",
"r  c #996853",
"t  c #A16347",
"y  c #A0654D",
"u  c #A1664D",
"i  c #A5674C",
"p  c #A5674D",
"a  c #A7674C",
"s  c #A5684C",
"d  c #A7684C",
"f  c #A7684D",
"g  c #A6694F",
"h  c #AC6A4B",
"j  c #A96A4C",
"k  c #AD6B4C",
"l  c #B26B49",
"z  c #B36C49",
"x  c #B26D4B",
"c  c #B56C48",
"v  c #B56E4B",
"b  c #B56F4B",
"n  c #B66E4B",
"m  c #B96E48",
"M  c #B8714D",
"N  c #BA724D",
"B  c #B9724E",
"V  c #B57150",
"C  c #BA7451",
"Z  c #BF7852",
"A  c #B97A5A",
"S  c #B97B5C",
"D  c #A17663",
"F  c #AE7C65",
"G  c #A47C6A",
"H  c #C27750",
"J  c #C47A53",
"K  c #C57B54",
"L  c #C67D56",
"P  c #C77F58",
"I  c #CB825A",
"U  c #CE8259",
"Y  c #CD845B",
"T  c #CA855F",
"R  c #CE855C",
"E  c #D08962",
"W  c #D18F6A",
"Q  c #DC9267",
"!  c #D0916C",
"~  c #D3956D",
"^  c #D8976F",
"/  c #DA986C",
"(  c #DA996F",
")  c #C3957C",
"_  c #E0A077",
"`  c #D8A889",
"'  c #DAB094",
"]  c #ECB389",
"[  c #CEB9AA",
"{  c #C6BCB3",
"}  c #C7BCB3",
"|  c #C7BEB5",
" . c #CBBFB4",
".. c #C8BFB6",
"X. c #CFC3B7",
"o. c #CFC4B9",
"O. c #D2C7BC",
"+. c #CECAC2",
"@. c #CFCEC8",
"#. c #CECFCA",
"$. c #D2CAC0",
"%. c #D0CEC8",
"&. c #D1CFC8",
"*. c #D0D0CA",
/* pixels */
"                                                                ",
"                                                                ",
"                                                                ",
"                                                                ",
"                                                                ",
"                        * @ @ @ # @ @ #                         ",
"                        ; g g 4 4 j g :                         ",
"                      1 g Y R v v R Y g 1                       ",
"                  % > g E P M v v N P E g 1 *                   ",
"                  # 2 V Q L l v v l L Q V 2 %                   ",
"                  1 t N Y I Z v v Z I Y N t *                   ",
"                * 2 g x v R R v v R R v x p 5 *                 ",
"                * 6 u g x N N n v N N v g u 2 *                 ",
"                * ; 6 u a a k n v h p p u 6 1 *                 ",
"                * % ; 8 0 0 g k k p 0 0 8 ; % *                 ",
"                  * * * 6 0 0 0 0 0 9 8 * * *                   ",
"                  % * & * : 2 u 0 1 * > % % *                   ",
"                    @ @ * * * 1 3 : * * . @                     ",
"                    F G > @ @ @ o o @ * G F                     ",
"                  m ) { D 9 r e r r e D ..) m                   ",
"                n U ` +.X.{ { { ..} { { +.` U v                 ",
"                n ( ] ' $.*.@.@.%.%.*.O.' ] ( v                 ",
"                v ~ ( W o.@.%.%.%.%.@.O.! / ~ v                 ",
"                  v c S [ O.X. . .X.O.[ S v v                   ",
"                      C ^ _ ! S S ! _ ^ C                       ",
"                        J K H     H J J                         ",
"                        v x         v l                         ",
"                                                                ",
"                                                                ",
"                                                                ",
"                                                                ",
"                                                                "
};
