/* XPM */
static char *_8cf2fb84fa94f399a915543f0299956XY5nlRbMuyj8Kc1y[] = {
/* columns rows colors chars-per-pixel */
"32 32 10 1 ",
"  c #73C757",
". c #74C757",
"X c #74C857",
"o c #73C758",
"O c #73C759",
"+ c #70C45B",
"@ c #70C55B",
"# c #71C65A",
"$ c #72C65A",
"% c #70C45C",
/* pixels */
"++X%++X   $$X X  $X X  $X $X X$X",
"++%%XXX+X$XX$ $X$X$ $X$X$ XX $  ",
"+++XXXXXXXXXXXXXXXXXXXXXXXXXXX$X",
"+++X+X+ XXXXXXXXXXXXXXXXXXXXXXX$",
"$$%XX+XXXXXXXXXXXXXXXXXXXXXXXXXX",
"%$$XXXXXXXXXXXXXXXXXXXXXXXXXXXXX",
"#%++XXXXXXXXXXXXXXXXXXXXXXXXXXX+",
"%#XX+X+XXXXXXXXXXXXXXXXXXXXXXXXX",
"#%##  $XXXXXXXXXXXXXXXXXXXXXXXXX",
"%%##X$XXXXXXXXXXXXXXXXXXXXXXXXXX",
"####$X$XXXXXXXXXXXXXXXXXXXXXXXX+",
"@###  XXXXXXXXXXXXXXXXXXXXXXXXXX",
"#@##   XXXXXXXXXXXXXXXXXXXXXXXXX",
"@@##  $ XXXXXXXXXXXXXXXXXXXXXXXX",
"@@##@ $ XXXXXXXXXXXXXXXXXXXXXXX+",
"@@##    XXXXXXXXXXXXXXXXXXXXXXXX",
"%$X$ X$XXXXXXXXXXXXXXXXXXXXXXXXX",
"#$$+ $XXXXXXXXXXXXXXXXXXXXXXXXXX",
"%#$X$X XXXXXXXXXXXXXXXXXXXXXXXX+",
"%%+ X$ XXXXXXXXXXXXXXXXXXXXXXXXX",
"@@@$$X$XXXXXXXXXXXXXXXXXXXXXXXXX",
"@@##  XXXXXXXXXXXXXXXXXXXXXXXXXX",
"@@@@$XXXXXXXXXXXXXXXXXXXXXXXXXXX",
"+@@ X$ XXXXXXXXXXXXXXXXXXXXXXXX+",
"++ + +XXXXXXXXXXXXXXXX  XXXXXXX+",
"++++    X XXXXXXXXXXXX  XXXXXXXX",
"+++ +X+X $   $X  $X    $X+XXX+X+",
"++@+X+XX$     $X$X$X$ $ XXXXXXXX",
"++%$+X +@     $$XX $ $   $  XXX+",
"+%%%++  ##$@##$# $#X##$#+$$@+++X",
"%%%$%$+$####$#####$$#### $$#X$++",
"%%%%%++$%#@###%####$#%#@$$%$$++ "
};
