/* XPM */
static char *_9d10a48fdc24a2cc1c8acb5ef13cb5d5wfzxLjyg39oFVgm[] = {
/* columns rows colors chars-per-pixel */
"32 32 10 1 ",
"  c #F6C584",
". c #F7C584",
"X c #F7C684",
"o c #F7C784",
"O c #F8C784",
"+ c #F7C884",
"@ c #F8C884",
"# c #F8C984",
"$ c #F8CA85",
"% c #F8C986",
/* pixels */
"XXXX+X+@##########$$$$$#$$$%@@$%",
"OOOOOO@@###########$#$$$@@@%$%$@",
"OOOOO@@@############$#$#@@$$%$%@",
"OOOO@@@@#############$##$$@@@@%$",
"@@@@@@@@#############$$#@%%$$$%@",
"@@@@@@@@###############$$$@@%@%$",
"@@@@$$@@################%@$%@%@$",
"@@@@$$$@################%$@%$$@%",
"@@@@############@@$$@$@@@$@$@$@$",
"@@@@########$$$#@$O$$@$@$@$@$@@%",
"@$@@########$$$$@@$$@$@@@$@$%$$%",
"$@@@########$$$$@@$$$@@@$@$@@@%%",
"@$$@@@###$$$$$$$####$$$@$@$@$$%%",
"$@O$@@##$$$$$$$$####$$@$@@@@%@@%",
"@$$$@###$$$$$$$$####$$@$@@@@$@$%",
"$$$$@###$$$$$$$$####$@$@@@@@%%$@",
"########$$$$$$$$####@@@@@@# # ##",
"########$$$$$$$$####@@@@### ##o#",
"########$$$$$$$$####@@@@## #ooo#",
"########$$$$$$$$####@@@@### oooo",
"########$$$$$$$$####@@@@oooOoooo",
"########$$$$$$$$####@@@@ooo oooo",
"########$$$$$$######@@@@o  o ooo",
"########$$$$########@@@@oOo o oo",
"#################@@@$OOO O...O O",
"#################@@@OO$oO ..... ",
"##################O@O$oo O .  ..",
"##################O$OO#oO ..   .",
"####################o#ooO ...   ",
"$$$##################o#o O. .O O",
"$#$$################ooooOo O OO ",
"##$#################ooooO O O oO"
};
