/* XPM */
static char *_f19f61e40494f57b1f89c01288e8a16jDoFJ04cp7SAQSJE[] = {
/* columns rows colors chars-per-pixel */
"32 32 10 1 ",
"  c #67E6D2",
". c #68E6D2",
"X c #69E6D2",
"o c #68E6D3",
"O c #69E7D3",
"+ c #6AE6D3",
"@ c #6AE7D3",
"# c #6BE7D3",
"$ c #6AE7D4",
"% c #6BE7D4",
/* pixels */
"@@@  @  ..  ........o+o+oXX X X ",
"@@  @  @.    .....XX+o+ooX X X X",
"@ @@.. ..     ..XXX+o+oooXX X X ",
"@@@ .....     ..XX+++o+ooX X X X",
"#XXX.....    ... XoooooooX XX X ",
"#XXX.....    ... oooooooo X  XXX",
"#.XX.....     .. ooooooo+X X XXX",
"#.XXX.....    ..  oooooooXX XXXX",
"#...X...........    X X Xooooo+o",
"#.XXX...........X    X X oooooo+",
"#XXXX...........    X X Xooooo+o",
"#XXXX........... X   X X ooo++o+",
"#.XXX...........X X X X Xoo+o+o+",
"#.XXX........... X X X XXo+o+o+o",
"#.XXX...........X X X XXXoo+o+o+",
"..XXXX.......XXX X X X X+o+o+o+o",
" + $ +++ % +oo @o+++@@X+@@ +++ +",
"++$ + + % % %XX@o+%%@@++@@+ + ++",
" +++++ + %++o+@@@@@@@@@@+ ++ + +",
"  $ $ ++% ++++@@@@@@@@@@+++ $++ ",
"++ $% %  % %@@@@@@@@@@@@%+++ ++ ",
"  $    %% % X@@@@@@@@@@@++++$+o$",
" $ $+%% %  %@@@@@@@@@@@@++++++oo",
"  $    % %% @@@@@@@@@@@@+++++++o",
"oo+     X X X X o+o++++++%%%%%%%",
"oo  +    X X X X%o+o++++++%%%%%%",
"oo ++ + X X X X X@o+o+++++%%%@%%",
"oo    +  X X X X  +o+o++++%%%@@%",
"XXXX  @ X X  @@  Xooooo+@%%%%###",
"XXXX@ @  X X    @ oooo+o@%%%%###",
"XXXXXX  X X X +  ooooo@@@@%%%###",
"XXXXX  @ X X X  +ooooo @@@%%####"
};
